<svg xmlns="http://www.w3.org/2000/svg" width="52" height="52" viewBox="0 0 52 52" fill="none">
  <path d="M17.3336 47.6667H34.6669C43.3769 47.6667 44.9369 44.1783 45.3919 39.9317L47.0169 22.5983C47.6019 17.3117 46.0853 13 36.8336 13H15.1669C5.91528 13 4.39861 17.3117 4.98361 22.5983L6.60861 39.9317C7.06361 44.1783 8.62361 47.6667 17.3336 47.6667Z" stroke="currentColor" stroke-width="1.5" stroke-miterlimit="10" stroke-linecap="round" stroke-linejoin="round"/>
  <path d="M17.3333 12.9997V11.2663C17.3333 7.43134 17.3333 4.33301 24.2666 4.33301H27.7333C34.6666 4.33301 34.6666 7.43134 34.6666 11.2663V12.9997" stroke="currentColor" stroke-width="1.5" stroke-miterlimit="10" stroke-linecap="round" stroke-linejoin="round"/>
  <path d="M30.3334 28.1667V30.3333C30.3334 30.355 30.3334 30.355 30.3334 30.3767C30.3334 32.7383 30.3117 34.6667 26.0001 34.6667C21.7101 34.6667 21.6667 32.76 21.6667 30.3983V28.1667C21.6667 26 21.6667 26 23.8334 26H28.1667C30.3334 26 30.3334 26 30.3334 28.1667Z" stroke="currentColor" stroke-width="1.5" stroke-miterlimit="10" stroke-linecap="round" stroke-linejoin="round"/>
  <path d="M46.9082 23.833C41.9033 27.473 36.1833 29.6397 30.3333 30.3763" stroke="currentColor" stroke-width="1.5" stroke-miterlimit="10" stroke-linecap="round" stroke-linejoin="round"/>
  <path d="M5.677 24.418C10.552 27.7546 16.0553 29.7696 21.667 30.398" stroke="currentColor" stroke-width="1.5" stroke-miterlimit="10" stroke-linecap="round" stroke-linejoin="round"/>
</svg>