<svg xmlns="http://www.w3.org/2000/svg" width="54" height="47" viewBox="0 0 54 47" fill="none">
  <path d="M26.6054 1L1 14.125M26.6054 1L53.1591 15.0625M26.6054 1V18.8125M1 14.125V31.9375M1 14.125L17.2167 23.625M26.6054 29.125L17.2167 23.625M26.6054 29.125V46M26.6054 29.125L36.6775 23.7909M53.1591 15.0625V31.9375M53.1591 15.0625L36.6775 23.7909M1 31.9375L26.6054 46M1 31.9375L17.2167 23.625M26.6054 18.8125L17.2167 23.625M26.6054 18.8125L36.6775 23.7909M26.6054 46L53.1591 31.9375M53.1591 31.9375L36.6775 23.7909" stroke="currentColor" stroke-width="1.5" stroke-linejoin="round"/>
</svg>