<svg xmlns="http://www.w3.org/2000/svg"  viewBox="0 0 40 39" fill="none">
  <path d="M36.25 19.5C36.25 16.3664 35.297 13.3032 33.5114 10.6977C31.7258 8.0922 29.1879 6.06147 26.2186 4.86229C23.2493 3.66311 19.982 3.34936 16.8298 3.96069C13.6776 4.57202 10.7821 6.081 8.50952 8.29678C6.23692 10.5126 4.68926 13.3357 4.06225 16.409C3.43524 19.4824 3.75704 22.6681 4.98696 25.5631C6.21689 28.4582 8.29969 30.9327 10.972 32.6736C13.6443 34.4145 16.7861 35.3438 20 35.3438C24.3085 35.3397 28.4394 33.6692 31.4859 30.6988C34.5325 27.7284 36.2459 23.7008 36.25 19.5ZM21.25 32.8453V23.1563H25C25.3315 23.1563 25.6495 23.0279 25.8839 22.7993C26.1183 22.5707 26.25 22.2607 26.25 21.9375C26.25 21.6143 26.1183 21.3043 25.8839 21.0757C25.6495 20.8472 25.3315 20.7188 25 20.7188H21.25V17.0625C21.25 16.416 21.5134 15.7961 21.9822 15.3389C22.4511 14.8818 23.087 14.625 23.75 14.625H26.25C26.5815 14.625 26.8995 14.4966 27.1339 14.268C27.3683 14.0395 27.5 13.7295 27.5 13.4063C27.5 13.083 27.3683 12.773 27.1339 12.5445C26.8995 12.3159 26.5815 12.1875 26.25 12.1875H23.75C22.4252 12.1915 21.1558 12.7064 20.219 13.6198C19.2822 14.5332 18.7541 15.7708 18.75 17.0625V20.7188H15C14.6685 20.7188 14.3505 20.8472 14.1161 21.0757C13.8817 21.3043 13.75 21.6143 13.75 21.9375C13.75 22.2607 13.8817 22.5707 14.1161 22.7993C14.3505 23.0279 14.6685 23.1563 15 23.1563H18.75V32.8453C15.2262 32.5317 11.9621 30.9056 9.63663 28.3054C7.31112 25.7052 6.10325 22.3309 6.26425 18.8846C6.42525 15.4382 7.94274 12.185 10.5011 9.80166C13.0594 7.41832 16.4616 6.08833 20 6.08833C23.5384 6.08833 26.9406 7.41832 29.499 9.80166C32.0573 12.185 33.5748 15.4382 33.7358 18.8846C33.8968 22.3309 32.6889 25.7052 30.3634 28.3054C28.0379 30.9056 24.7738 32.5317 21.25 32.8453Z" fill="currentColor"/>
</svg>