<svg width="155" height="40" viewBox="0 0 155 40" fill="none" xmlns="http://www.w3.org/2000/svg">
<path d="M154.5 20C154.5 28.0242 148.216 34.5 140.5 34.5C132.784 34.5 126.5 28.0242 126.5 20C126.5 11.9758 132.784 5.5 140.5 5.5C148.216 5.5 154.5 11.9758 154.5 20Z" stroke="#1B1B1B"/>
<path d="M141 20L91 20" stroke="#1B1B1B"/>
<path d="M4.41894 23.896H4.03494L6.48294 17H7.87494L4.83494 25H3.63494L0.610939 17H2.00294L4.41894 23.896ZM11.3012 13.8V15.352H9.63719V13.8H11.3012ZM9.82919 17H11.1092V25H9.82919V17ZM19.4393 22.424H20.6393C20.554 22.9467 20.362 23.416 20.0633 23.832C19.7753 24.2373 19.3913 24.5627 18.9113 24.808C18.442 25.0427 17.898 25.16 17.2793 25.16C16.5326 25.16 15.8606 24.984 15.2633 24.632C14.666 24.2693 14.1913 23.7787 13.8393 23.16C13.498 22.5307 13.3273 21.816 13.3273 21.016C13.3273 20.216 13.4926 19.5013 13.8233 18.872C14.1646 18.2427 14.6286 17.7467 15.2153 17.384C15.802 17.0213 16.4633 16.84 17.1993 16.84C17.978 16.84 18.634 17.016 19.1673 17.368C19.7113 17.7093 20.1113 18.216 20.3673 18.888C20.634 19.5493 20.7406 20.3653 20.6873 21.336H14.6073C14.6606 21.8587 14.8046 22.3173 15.0393 22.712C15.274 23.1067 15.5833 23.416 15.9673 23.64C16.3513 23.8533 16.7886 23.96 17.2793 23.96C17.8233 23.96 18.282 23.8213 18.6553 23.544C19.0393 23.256 19.3006 22.8827 19.4393 22.424ZM17.2473 18.04C16.586 18.04 16.0313 18.232 15.5833 18.616C15.1353 19 14.8366 19.5227 14.6873 20.184H19.3753C19.3326 19.48 19.1033 18.9467 18.6873 18.584C18.282 18.2213 17.802 18.04 17.2473 18.04ZM30.6154 23.832L30.2954 23.816L32.1674 17H33.5594L31.1114 25H29.9114L27.5434 17.992H27.8634L25.4954 25H24.2954L21.8634 17H23.2554L25.0954 23.816L24.7754 23.832L26.9354 17H28.4874L30.6154 23.832ZM39.2466 17H40.5266V25H39.2466V17ZM43.2786 16.84C43.7052 16.84 44.0892 16.904 44.4306 17.032C44.7719 17.16 45.0599 17.3467 45.2946 17.592C45.5292 17.8373 45.7106 18.136 45.8386 18.488C45.9666 18.8293 46.0306 19.2187 46.0306 19.656V25H44.7506V19.976C44.7506 19.3573 44.6066 18.8933 44.3186 18.584C44.0306 18.2747 43.5986 18.12 43.0226 18.12C42.5852 18.12 42.1799 18.232 41.8066 18.456C41.4332 18.68 41.1239 18.9893 40.8786 19.384C40.6439 19.768 40.4999 20.216 40.4466 20.728L40.4306 19.8C40.4839 19.352 40.5906 18.9467 40.7506 18.584C40.9212 18.2213 41.1292 17.912 41.3746 17.656C41.6306 17.3893 41.9186 17.1867 42.2386 17.048C42.5692 16.9093 42.9159 16.84 43.2786 16.84ZM48.6546 16.84C49.0812 16.84 49.4652 16.904 49.8066 17.032C50.1479 17.16 50.4359 17.3467 50.6706 17.592C50.9052 17.8373 51.0866 18.136 51.2146 18.488C51.3426 18.8293 51.4066 19.2187 51.4066 19.656V25H50.1266V19.976C50.1266 19.3573 49.9826 18.8933 49.6946 18.584C49.4066 18.2747 48.9746 18.12 48.3986 18.12C47.9612 18.12 47.5559 18.232 47.1826 18.456C46.8092 18.68 46.4999 18.9893 46.2546 19.384C46.0199 19.768 45.8759 20.216 45.8226 20.728L45.8066 19.8C45.8599 19.352 45.9666 18.9467 46.1266 18.584C46.2972 18.2213 46.5052 17.912 46.7506 17.656C47.0066 17.3893 47.2946 17.1867 47.6146 17.048C47.9452 16.9093 48.2919 16.84 48.6546 16.84ZM57.4329 25.16C56.7503 25.16 56.1103 24.9947 55.5129 24.664C54.9156 24.3333 54.4303 23.8587 54.0569 23.24C53.6943 22.6107 53.5129 21.8693 53.5129 21.016C53.5129 20.1627 53.6943 19.4267 54.0569 18.808C54.4303 18.1787 54.9156 17.6933 55.5129 17.352C56.1103 17.0107 56.7503 16.84 57.4329 16.84C58.1156 16.84 58.7503 17.0107 59.3369 17.352C59.9343 17.6933 60.4143 18.1787 60.7769 18.808C61.1396 19.4267 61.3209 20.1627 61.3209 21.016C61.3209 21.8693 61.1396 22.6107 60.7769 23.24C60.4143 23.8587 59.9343 24.3333 59.3369 24.664C58.7503 24.9947 58.1156 25.16 57.4329 25.16ZM57.4329 23.96C57.8809 23.96 58.3023 23.848 58.6969 23.624C59.0916 23.4 59.4116 23.0693 59.6569 22.632C59.9129 22.184 60.0409 21.6453 60.0409 21.016C60.0409 20.3867 59.9129 19.8533 59.6569 19.416C59.4116 18.968 59.0916 18.6267 58.6969 18.392C58.3023 18.1573 57.8809 18.04 57.4329 18.04C56.9849 18.04 56.5583 18.1573 56.1529 18.392C55.7583 18.616 55.4329 18.952 55.1769 19.4C54.9209 19.8373 54.7929 20.376 54.7929 21.016C54.7929 21.6453 54.9156 22.184 55.1609 22.632C55.4169 23.0693 55.7476 23.4 56.1529 23.624C56.5583 23.848 56.9849 23.96 57.4329 23.96ZM63.4253 17H64.7053V25H63.4253V17ZM67.2653 18.2C66.7213 18.2 66.2626 18.3387 65.8893 18.616C65.5266 18.8827 65.2386 19.2133 65.0253 19.608C64.8226 19.992 64.6893 20.3653 64.6253 20.728L64.6093 19.8C64.6093 19.704 64.6306 19.544 64.6733 19.32C64.716 19.096 64.796 18.8453 64.9133 18.568C65.0306 18.28 65.1853 18.008 65.3773 17.752C65.58 17.4853 65.836 17.2667 66.1453 17.096C66.4546 16.9253 66.828 16.84 67.2653 16.84V18.2ZM74.8506 22.424H76.0506C75.9652 22.9467 75.7732 23.416 75.4746 23.832C75.1866 24.2373 74.8026 24.5627 74.3226 24.808C73.8532 25.0427 73.3092 25.16 72.6906 25.16C71.9439 25.16 71.2719 24.984 70.6746 24.632C70.0772 24.2693 69.6026 23.7787 69.2506 23.16C68.9092 22.5307 68.7386 21.816 68.7386 21.016C68.7386 20.216 68.9039 19.5013 69.2346 18.872C69.5759 18.2427 70.0399 17.7467 70.6266 17.384C71.2132 17.0213 71.8746 16.84 72.6106 16.84C73.3892 16.84 74.0452 17.016 74.5786 17.368C75.1226 17.7093 75.5226 18.216 75.7786 18.888C76.0452 19.5493 76.1519 20.3653 76.0986 21.336H70.0186C70.0719 21.8587 70.2159 22.3173 70.4506 22.712C70.6852 23.1067 70.9946 23.416 71.3786 23.64C71.7626 23.8533 72.1999 23.96 72.6906 23.96C73.2346 23.96 73.6932 23.8213 74.0666 23.544C74.4506 23.256 74.7119 22.8827 74.8506 22.424ZM72.6586 18.04C71.9972 18.04 71.4426 18.232 70.9946 18.616C70.5466 19 70.2479 19.5227 70.0986 20.184H74.7866C74.7439 19.48 74.5146 18.9467 74.0986 18.584C73.6932 18.2213 73.2132 18.04 72.6586 18.04Z" fill="#1B1B1B"/>
</svg>
