<svg width="34" height="34" viewBox="0 0 34 34" fill="none" xmlns="http://www.w3.org/2000/svg">
<rect width="34" height="34" rx="5" fill="currentColor"/>
<path d="M17.0223 11.8438C19.8348 11.8438 22.1562 14.1652 22.1562 16.9777C22.1562 19.8348 19.8348 22.1116 17.0223 22.1116C14.1652 22.1116 11.8884 19.8348 11.8884 16.9777C11.8884 14.1652 14.1652 11.8438 17.0223 11.8438ZM17.0223 20.3259C18.8527 20.3259 20.3259 18.8527 20.3259 16.9777C20.3259 15.1473 18.8527 13.6741 17.0223 13.6741C15.1473 13.6741 13.6741 15.1473 13.6741 16.9777C13.6741 18.8527 15.192 20.3259 17.0223 20.3259ZM23.5402 11.6652C23.5402 12.3348 23.0045 12.8705 22.3348 12.8705C21.6652 12.8705 21.1295 12.3348 21.1295 11.6652C21.1295 10.9955 21.6652 10.4598 22.3348 10.4598C23.0045 10.4598 23.5402 10.9955 23.5402 11.6652ZM26.933 12.8705C27.0223 14.5223 27.0223 19.4777 26.933 21.1295C26.8437 22.7366 26.4866 24.1205 25.3259 25.3259C24.1652 26.4866 22.7366 26.8438 21.1295 26.933C19.4777 27.0223 14.5223 27.0223 12.8705 26.933C11.2634 26.8438 9.87946 26.4866 8.67411 25.3259C7.51339 24.1205 7.15625 22.7366 7.06696 21.1295C6.97768 19.4777 6.97768 14.5223 7.06696 12.8705C7.15625 11.2634 7.51339 9.83482 8.67411 8.67411C9.87946 7.51339 11.2634 7.15625 12.8705 7.06696C14.5223 6.97768 19.4777 6.97768 21.1295 7.06696C22.7366 7.15625 24.1652 7.51339 25.3259 8.67411C26.4866 9.83482 26.8437 11.2634 26.933 12.8705ZM24.7902 22.8705C25.3259 21.5759 25.192 18.4509 25.192 16.9777C25.192 15.5491 25.3259 12.4241 24.7902 11.0848C24.433 10.2366 23.7634 9.52232 22.9152 9.20982C21.5759 8.67411 18.4509 8.80804 17.0223 8.80804C15.5491 8.80804 12.4241 8.67411 11.1295 9.20982C10.2366 9.56696 9.56696 10.2366 9.20982 11.0848C8.67411 12.4241 8.80804 15.5491 8.80804 16.9777C8.80804 18.4509 8.67411 21.5759 9.20982 22.8705C9.56696 23.7634 10.2366 24.433 11.1295 24.7902C12.4241 25.3259 15.5491 25.192 17.0223 25.192C18.4509 25.192 21.5759 25.3259 22.9152 24.7902C23.7634 24.433 24.4777 23.7634 24.7902 22.8705Z" fill="white"/>
</svg>
