<svg xmlns="http://www.w3.org/2000/svg" width="40" height="39" viewBox="0 0 40 39" fill="none">
  <path d="M19.1587 11.6719C17.7371 11.6719 16.3475 12.0829 15.1655 12.8529C13.9836 13.6229 13.0623 14.7174 12.5183 15.9979C11.9743 17.2784 11.832 18.6875 12.1093 20.0468C12.3866 21.4062 13.0712 22.6549 14.0764 23.635C15.0816 24.615 16.3622 25.2824 17.7565 25.5528C19.1507 25.8232 20.5959 25.6845 21.9092 25.1541C23.2226 24.6237 24.3451 23.7254 25.1349 22.573C25.9247 21.4206 26.3462 20.0657 26.3462 18.6797C26.3462 16.8211 25.5889 15.0386 24.241 13.7244C22.8931 12.4102 21.0649 11.6719 19.1587 11.6719ZM19.1587 23.8594C18.108 23.8594 17.0809 23.5556 16.2072 22.9864C15.3336 22.4173 14.6527 21.6083 14.2506 20.6619C13.8485 19.7154 13.7433 18.6739 13.9483 17.6692C14.1533 16.6644 14.6592 15.7415 15.4022 15.0171C16.1452 14.2927 17.0918 13.7994 18.1223 13.5995C19.1528 13.3997 20.221 13.5022 21.1917 13.8943C22.1624 14.2863 22.9921 14.9502 23.5759 15.802C24.1596 16.6538 24.4712 17.6552 24.4712 18.6797C24.4671 20.0522 23.906 21.3673 22.9106 22.3378C21.9152 23.3083 20.5664 23.8554 19.1587 23.8594ZM26.0337 3.75H12.2837C10.0459 3.75 7.89982 4.61672 6.31748 6.1595C4.73514 7.70228 3.84619 9.79474 3.84619 11.9766V25.3828C3.84619 27.5646 4.73514 29.6571 6.31748 31.1999C7.89982 32.7426 10.0459 33.6094 12.2837 33.6094H26.0337C28.2715 33.6094 30.4176 32.7426 31.9999 31.1999C33.5822 29.6571 34.4712 27.5646 34.4712 25.3828V11.9766C34.4712 9.79474 33.5822 7.70228 31.9999 6.1595C30.4176 4.61672 28.2715 3.75 26.0337 3.75ZM32.5962 25.3828C32.5962 27.0798 31.9048 28.7073 30.6741 29.9072C29.4434 31.1071 27.7742 31.7812 26.0337 31.7812H12.2837C10.5432 31.7812 8.87401 31.1071 7.6433 29.9072C6.4126 28.7073 5.72119 27.0798 5.72119 25.3828V11.9766C5.72119 10.2796 6.4126 8.65212 7.6433 7.45218C8.87401 6.25224 10.5432 5.57812 12.2837 5.57812H26.0337C27.7742 5.57812 29.4434 6.25224 30.6741 7.45218C31.9048 8.65212 32.5962 10.2796 32.5962 11.9766V25.3828ZM28.8462 10.7578C28.8462 11.0591 28.7546 11.3537 28.5829 11.6042C28.4112 11.8547 28.1671 12.05 27.8816 12.1653C27.5961 12.2806 27.282 12.3108 26.9789 12.252C26.6758 12.1932 26.3974 12.0481 26.1788 11.835C25.9603 11.622 25.8115 11.3505 25.7512 11.055C25.6909 10.7595 25.7219 10.4532 25.8401 10.1748C25.9584 9.89645 26.1587 9.65852 26.4156 9.49112C26.6726 9.32372 26.9747 9.23438 27.2837 9.23438C27.6981 9.23438 28.0955 9.39488 28.3885 9.68058C28.6816 9.96628 28.8462 10.3538 28.8462 10.7578Z" fill="currentColor" stroke="currentColor" stroke-width="0.5"/>
</svg>