<svg width="34" height="34" viewBox="0 0 34 34" fill="none" xmlns="http://www.w3.org/2000/svg">
<rect width="34" height="34" rx="5" fill="#7A7A7A"/>
<path d="M12.0179 25H8.28125V13.6286H12.0179V25ZM10.1295 12.1074C8.96429 12.1074 8 11.1566 8 10.0157C8 8.91275 8.96429 8 10.1295 8C11.3348 8 12.2991 8.91275 12.2991 10.0157C12.2991 11.1566 11.3348 12.1074 10.1295 12.1074ZM22.2634 25V19.4855C22.2634 18.1544 22.2232 16.481 20.2946 16.481C18.3661 16.481 18.0848 17.8881 18.0848 19.3714V25H14.3482V13.6286H17.9241V15.1879H17.9643C18.4866 14.3132 19.692 13.3624 21.5 13.3624C25.2768 13.3624 26 15.7204 26 18.7629V25H22.2634Z" fill="white"/>
</svg>
