<svg xmlns="http://www.w3.org/2000/svg" width="43" height="50" viewBox="0 0 43 50" fill="none">
  <path fill-rule="evenodd" clip-rule="evenodd" d="M21.5339 0.284337L21.1237 -0.000488281L20.7027 0.268084C17.0353 2.60772 11.626 7.01638 7.25897 12.6766C2.89756 18.3294 -0.493291 25.3223 0.0591009 32.802C0.611595 40.2831 4.25895 44.6785 8.62399 47.0809C12.9106 49.4401 17.8404 49.8557 21.1128 49.5199C30.0776 50.2878 35.7123 47.5814 38.9609 43.6337C42.1871 39.7132 42.9578 34.6899 42.4559 31.005C40.3612 15.6252 27.8306 4.65687 21.5339 0.284337ZM37.8026 42.6806C35.0021 46.0838 30.0708 48.6352 21.8561 48.0728V42.6806L39.7601 25.8272C40.3024 27.5525 40.7163 29.3474 40.9696 31.2074C41.4272 34.5673 40.7112 39.1461 37.8026 42.6806ZM39.2293 24.2693L21.8561 40.6231V30.0654L35.6738 17.0587C37.0603 19.285 38.2839 21.694 39.2293 24.2693ZM21.8561 17.5205V28.0092L34.8471 15.7806C33.3681 13.5762 31.7419 11.5663 30.0917 9.76826L21.8561 17.5205ZM29.0646 8.6788C26.5066 6.03635 23.9521 3.90883 21.8561 2.36063V15.4643L29.0646 8.6788ZM20.3561 48.0788V2.29948C16.8851 4.69579 12.2532 8.65904 8.44658 13.5928C4.19457 19.1039 1.04121 25.7342 1.55503 32.6915C2.06874 39.6475 5.40986 43.5997 9.34725 45.7668C13.0494 47.8044 17.3224 48.2829 20.3561 48.0788Z" fill="currentColor"/>
</svg>