<svg width="48" height="48" viewBox="0 0 48 48" fill="none" xmlns="http://www.w3.org/2000/svg">
<g id="Component 550">
<circle id="Ellipse 5" cx="24" cy="24" r="24" fill="currentColor" fill-opacity="0.9"/>
<path id="Exclude" fill-rule="evenodd" clip-rule="evenodd" d="M39.9999 23.4261C39.9999 16.1804 32.8226 10.2856 23.9998 10.2856C15.1782 10.2856 7.99994 16.1804 7.99994 23.4261C7.99994 29.9218 13.6921 35.3618 21.381 36.3905C21.9021 36.5042 22.6113 36.7382 22.7907 37.1889C22.952 37.5984 22.8962 38.2397 22.8422 38.6532C22.8422 38.6532 22.6545 39.7958 22.614 40.0392L22.6078 40.0752C22.5319 40.5136 22.3402 41.6199 23.9998 40.912C25.7076 40.1838 33.2143 35.4211 36.5711 31.5108C38.8899 28.9375 39.9999 26.326 39.9999 23.4261ZM20.749 19.9135H19.6267C19.4547 19.9135 19.3148 20.0546 19.3148 20.2279V27.2754C19.3148 27.449 19.4547 27.5898 19.6267 27.5898H20.749C20.9211 27.5898 21.0607 27.449 21.0607 27.2754V20.2279C21.0607 20.0546 20.9211 19.9135 20.749 19.9135ZM27.3515 19.9135H28.4738C28.6462 19.9135 28.7854 20.0546 28.7854 20.2279V27.2754C28.7854 27.449 28.6462 27.5898 28.4738 27.5898H27.3515C27.2513 27.5898 27.1537 27.539 27.0963 27.4568L23.8975 23.0897V27.2754C23.8975 27.449 23.7579 27.5898 23.5856 27.5898H22.4636C22.2915 27.5898 22.1516 27.449 22.1516 27.2754V20.2279C22.1516 20.0546 22.2915 19.9135 22.4636 19.9135H23.5856C23.6901 19.9194 23.786 19.9638 23.845 20.0534L27.0399 24.4149V20.2279C27.0399 20.0546 27.1794 19.9135 27.3515 19.9135ZM18.0437 25.8251H14.9943V20.2284C14.9943 20.0544 14.8547 19.9134 14.683 19.9134H13.5603C13.3883 19.9134 13.2487 20.0544 13.2487 20.2284V27.2746C13.2487 27.4457 13.3877 27.5899 13.56 27.5899H18.0437C18.2158 27.5899 18.3547 27.4486 18.3547 27.2746V26.1401C18.3547 25.9662 18.2158 25.8251 18.0437 25.8251ZM34.9825 21.3632C34.9825 21.5374 34.8436 21.6782 34.6715 21.6782H31.6224V22.8691H34.6715C34.8436 22.8691 34.9825 23.0105 34.9825 23.1844V24.3189C34.9825 24.4928 34.8436 24.6339 34.6715 24.6339H31.6224V25.8251H34.6715C34.8436 25.8251 34.9825 25.9665 34.9825 26.1401V27.2749C34.9825 27.4486 34.8436 27.5899 34.6715 27.5899H30.1875C30.0156 27.5899 29.8765 27.4455 29.8765 27.2749V20.2284C29.8765 20.0574 30.016 19.9134 30.1881 19.9134H34.6715C34.8436 19.9134 34.9825 20.0548 34.9825 20.2287V21.3632Z" fill="#F5F5F5"/>
</g>
</svg>
