<svg xmlns="http://www.w3.org/2000/svg" width="29" height="35" viewBox="0 0 29 35" fill="none">
  <path fill-rule="evenodd" clip-rule="evenodd" d="M13.6915 34.7451L13.8145 34.8142L13.8638 34.8419C14.0589 34.9457 14.2773 35 14.4991 35C14.721 35 14.9393 34.9457 15.1345 34.8419L15.1837 34.8159L15.3085 34.7451C15.9959 34.3442 16.6667 33.9163 17.3192 33.4625C19.0083 32.2897 20.5866 30.9695 22.0347 29.518C25.4515 26.0783 29 20.91 29 14.2603C29 10.4783 27.4723 6.85108 24.753 4.17675C22.0338 1.50242 18.3456 0 14.5 0C10.6544 0 6.96623 1.50242 4.24695 4.17675C1.52767 6.85108 0 10.4783 0 14.2603C0 20.9082 3.5503 26.0783 6.96527 29.518C8.41289 30.9694 9.99054 32.2896 11.6791 33.4625C12.3322 33.9164 13.0035 34.3442 13.6915 34.7451ZM14.5 19.4459C15.8984 19.4459 17.2396 18.8996 18.2284 17.9271C19.2172 16.9546 19.7727 15.6356 19.7727 14.2603C19.7727 12.885 19.2172 11.5661 18.2284 10.5936C17.2396 9.62109 15.8984 9.07475 14.5 9.07475C13.1016 9.07475 11.7604 9.62109 10.7716 10.5936C9.78279 11.5661 9.22727 12.885 9.22727 14.2603C9.22727 15.6356 9.78279 16.9546 10.7716 17.9271C11.7604 18.8996 13.1016 19.4459 14.5 19.4459Z" fill="#1B1B1B"/>
</svg>