<svg width="1297" height="1470" viewBox="0 0 1297 1470" fill="none" xmlns="http://www.w3.org/2000/svg">
<g clip-path="url(#clip0_2050_572)">
<path d="M227.73 205.36C226.72 211.65 223.7 219.95 223.2 224.23C222.95 225.49 220.94 228 215.65 228C209.86 228 199.29 229.01 193.51 229.51C188.23 229.76 184.95 228 184.95 225.74C184.95 224.48 187.72 222.72 191.74 221.71C200.04 219.19 207.59 214.66 210.11 211.14C220.43 198.06 223.7 184.97 223.7 171.38C223.7 131.12 190.48 106.71 152.49 106.71C135.63 106.71 121.79 109.73 110.72 115.27C82.2899 129.61 71.2099 157.29 71.2099 177.67C71.2099 181.95 71.7099 194.28 77.4999 204.34C83.2899 214.91 91.0899 221.45 101.66 227.49C107.2 230.51 108.45 231.77 108.45 233.03C108.45 235.8 102.91 235.8 100.15 235.3C93.6099 234.29 81.0299 229.01 75.2399 225.74C72.9799 224.73 69.9599 220.46 68.4499 217.69C66.9399 213.66 61.3999 194.04 61.3999 172.14C61.3999 136.41 78.7599 110.24 90.5899 100.17C101.66 90.61 119.78 79.03 148.21 79.03C177.15 79.03 199.79 96.14 208.6 106.96C226.21 128.35 231.5 152.25 231.5 174.9C231.5 184.22 229.74 195.79 227.73 205.36Z" fill="white"/>
<path d="M78.0102 318.34C69.2002 318.09 62.6602 311.8 62.6602 303.49C62.6602 296.95 66.9402 288.9 78.0102 288.9C89.3302 288.9 93.3602 298.71 93.3602 303.49C93.3602 314.82 83.2902 318.34 78.0102 318.34Z" fill="white"/>
<path d="M153.24 418.24C153.24 433.59 154.25 467.81 154.25 508.32C154.25 509.83 155.76 510.58 160.54 511.09C163.81 511.34 196.02 511.34 205.83 510.59C215.14 509.58 217.41 508.07 220.17 497.25C221.18 493.48 222.94 490.46 225.2 490.46C226.96 490.46 227.97 492.98 227.97 498.51C227.97 501.78 227.22 518.39 227.22 524.68C227.22 533.24 228.23 545.57 228.23 548.33C228.23 552.61 227.22 555.63 225.21 555.63C223.7 555.63 221.94 553.62 220.68 548.08C218.16 538.01 213.63 536 206.59 535.5C193.76 534.24 167.59 533.49 126.07 533.49C112.23 533.49 91.8499 534.25 86.8199 534.5C77.0099 534.75 76.2499 537.27 72.9799 548.59C71.7199 552.36 69.7099 554.38 68.1999 554.38C65.9399 554.38 65.1799 552.11 65.1799 547.33C65.1799 543.3 65.9299 533.24 65.9299 525.44C65.9299 519.9 64.4199 500.78 64.4199 495.75C64.4199 491.47 65.1799 488.96 67.4399 488.96C69.6999 488.96 71.2099 491.98 71.9699 495C75.7399 508.09 78.5099 509.09 96.3799 510.1C107.2 510.6 125.82 511.11 136.89 510.86C141.17 510.86 141.92 509.85 141.92 508.09C141.92 473.11 142.93 423.04 142.42 418.01C142.17 417.25 139.9 415.49 137.89 415.49C130.84 414.73 99.8899 415.49 92.3399 415.49C80.5099 415.49 76.2399 418.01 72.9599 428.57C71.4499 434.11 70.1899 436.37 67.6799 436.62C65.6699 436.62 64.9099 432.09 64.9099 428.82C64.9099 427.06 65.9199 410.7 65.9199 401.64C65.9199 395.85 64.9099 384.78 64.9099 376.23C64.9099 370.44 65.9199 368.43 67.6799 368.43C69.9399 368.43 71.4499 371.45 72.4599 374.47C75.7299 387.05 78.2499 389.06 88.3099 390.07C98.6299 390.83 128.82 392.33 168.58 392.33C173.61 392.33 194.75 393.09 205.82 392.58C214.12 392.08 217.65 390.32 219.91 380.25C221.17 374.71 222.93 372.95 224.69 372.95C226.7 372.95 227.71 375.97 227.71 380C227.71 387.05 227.21 397.36 227.21 403.91C227.21 414.48 227.71 422.78 227.71 428.57C227.71 433.85 226.45 436.87 224.69 436.87C222.17 436.87 220.92 434.35 219.91 429.07C217.65 417.75 213.62 416.99 203.05 416.24C194.49 415.74 162.29 415.23 158.01 415.48C153.75 415.72 153.24 416.48 153.24 418.24Z" fill="white"/>
<path d="M78.0102 637.41C69.2002 637.16 62.6602 630.87 62.6602 622.56C62.6602 616.02 66.9402 607.97 78.0102 607.97C89.3302 607.97 93.3602 617.78 93.3602 622.56C93.3602 633.89 83.2902 637.41 78.0102 637.41Z" fill="white"/>
<path d="M227.22 779.33C226.72 780.84 222.94 782.35 222.19 782.6C217.91 782.85 202.31 785.12 201.3 785.12C197.02 785.12 194.76 784.87 194.76 783.11C194.76 781.1 196.52 777.83 200.04 776.82C208.85 773.8 216.4 767.26 218.16 764.74C221.93 759.96 224.2 753.67 224.2 746.37C224.2 730.52 212.12 718.19 195.26 718.19C178.15 718.19 170.35 730.52 155.5 752.92C141.41 774.81 127.57 788.15 106.43 788.15C93.8501 788.15 79.5101 780.85 70.7001 767.01C65.4201 758.96 61.6401 744.36 61.6401 732.79C61.6401 723.23 64.1601 707.38 68.1801 699.07C69.4401 696.55 75.2301 693.03 75.9801 693.03C84.5401 691.52 95.8601 689.26 100.39 689.26C101.65 689.26 105.17 691.78 105.17 692.78C105.17 694.79 98.8801 698.82 91.0801 702.34C76.9901 709.13 70.1901 725.24 70.1901 735.56C70.1901 751.41 81.7601 765 99.3801 765C110.2 765 121.27 759.97 137.63 734.3C151.97 711.91 166.57 697.06 188.21 697.06C200.54 697.06 212.12 702.85 219.41 711.15C226.46 719.2 231.49 731.03 231.49 748.89C231.5 761.21 227.98 774.3 227.22 779.33Z" fill="white"/>
<path d="M153.24 931.82C146.19 938.11 134.12 943.9 120.28 943.9C106.44 943.9 88.57 937.86 76.75 922.26C65.93 908.42 63.92 893.32 63.92 882.5C63.92 877.22 64.42 871.93 64.93 868.91C64.93 867.9 62.92 867.15 61.66 867.15C39.77 867.15 27.69 867.15 20.9 867.91C14.11 868.66 10.83 870.43 7.82002 879.99C6.31002 885.02 5.05002 887.29 3.29002 887.29C1.28002 887.29 0.0200195 883.77 0.0200195 880.5C0.0200195 874.71 1.28002 859.61 1.28002 849.8C1.28002 843.76 0.53002 840.99 0.53002 832.69C0.53002 828.92 1.54002 825.39 4.05002 825.39C5.06002 825.39 7.07002 827.15 7.82002 831.18C10.59 844.26 13.1 845.52 30.22 846.53C38.78 847.03 59.16 847.29 84.82 847.29C101.93 847.29 122.56 847.54 136.4 847.29C145.96 847.04 147.47 846.03 147.98 845.28C152.51 839.24 155.03 835.97 156.54 835.97C157.55 835.97 160.57 838.49 161.07 839.74C162.33 844.02 167.36 855.34 170.13 860.37C171.39 862.89 172.39 864.9 172.39 865.4C172.39 866.15 170.38 868.17 169.37 868.17C165.09 867.67 160.56 867.67 156.54 867.41C155.78 867.41 154.53 868.42 155.28 869.42C159.05 875.21 162.58 882 164.09 885.52C165.85 889.55 167.36 896.59 167.36 903.89C167.34 913.2 161.3 924.52 153.24 931.82ZM149.72 870.93C148.97 869.92 146.45 868.41 142.42 867.91C134.12 866.4 108.2 866.4 97.13 867.15C92.6 867.65 88.32 868.66 86.06 870.17C76.5 876.71 72.22 888.54 72.22 894.58C72.22 897.35 73.23 902.13 75.99 905.4C86.56 917.98 106.69 922.01 113.48 922.01C118.76 922.01 132.86 921.76 143.93 911.69C150.47 905.4 154 895.33 154 889.8C154 880.74 151.99 873.95 149.72 870.93Z" fill="white"/>
<path d="M155.51 1058.39C150.48 1061.91 145.19 1063.67 134.37 1063.67C124.56 1063.67 93.3499 1062.66 90.5899 1062.66C80.0199 1062.66 78.5099 1069.96 78.5099 1072.47C78.5099 1073.48 80.5199 1079.01 82.2799 1082.03C82.5299 1082.79 82.2799 1083.04 81.5199 1083.54C80.7699 1084.04 78.9999 1084.04 78.7499 1084.04C73.9699 1084.04 62.8999 1072.72 62.8999 1060.64C62.8999 1054.6 65.9199 1047.3 75.2299 1044.28C75.7299 1044.03 76.4899 1043.02 76.2399 1042.52C70.1999 1033.71 65.9199 1023.14 64.9199 1020.38C63.9099 1017.61 63.4099 1011.82 63.4099 1010.06C63.4099 1001 74.2299 992.19 87.0599 992.19C91.5899 992.19 96.6199 994.2 100.14 996.97C103.41 999.49 104.67 1003.51 106.18 1007.04C107.94 1011.07 113.48 1031.7 115.24 1037.24C117 1042.52 118.26 1044.03 119.77 1044.03C122.03 1044.28 137.13 1044.79 140.15 1044.53C146.44 1044.53 156.76 1037.74 156.76 1025.41C156.76 1020.63 155.5 1017.36 154.24 1015.6C153.48 1014.34 149.46 1013.59 143.67 1013.84C142.92 1013.84 141.66 1013.08 141.15 1012.58C139.14 1010.06 132.34 996.22 132.34 994.97C132.34 993.46 134.35 991.95 135.86 991.95C142.91 991.95 149.95 998.74 158.25 1011.33C163.79 1019.13 167.81 1030.45 167.81 1034.98C167.84 1048.08 161.04 1054.62 155.51 1058.39ZM81.0299 1040.28C81.7799 1041.79 86.3099 1043.05 87.0699 1043.3C92.3499 1043.55 101.41 1043.8 107.2 1043.8C107.95 1043.8 109.21 1042.79 109.21 1042.04C109.21 1035.5 105.18 1023.42 101.66 1017.13C100.15 1014.36 98.3899 1012.35 92.0999 1012.35C81.0299 1012.35 76.9999 1022.42 76.9999 1027.45C76.9999 1030.97 78.5099 1036 81.0299 1040.28Z" fill="white"/>
<path d="M161.3 1203.08C159.29 1205.6 155.26 1206.85 153.25 1206.85C149.22 1206.85 142.93 1199.3 142.93 1198.29C142.93 1196.53 144.69 1192.25 147.96 1188.22C153.75 1180.17 158.03 1175.64 158.03 1167.08C158.03 1163.56 155.01 1156.51 150.23 1152.49C142.68 1145.95 131.86 1142.17 120.54 1142.17C105.69 1142.17 96.8902 1147.96 95.3802 1149.22C85.5702 1155.01 79.2802 1166.58 79.2802 1179.92C79.2802 1188.73 82.3002 1195.77 86.8302 1202.57C88.5902 1205.09 87.8402 1207.1 86.5802 1207.1C83.8102 1207.1 81.0402 1205.59 79.0302 1203.58C69.4702 1195.02 63.1802 1180.43 63.1802 1166.84C63.1802 1150.48 71.7402 1136.9 83.3102 1129.35C90.6102 1124.82 102.18 1121.3 112.75 1121.3C131.37 1121.3 146.47 1131.11 156.28 1145.96C163.07 1155.52 166.85 1171.88 166.85 1179.18C166.83 1186.98 164.82 1198.3 161.3 1203.08Z" fill="white"/>
<path d="M157.77 1327.13C152.49 1332.41 145.19 1335.94 136.38 1335.94C134.87 1335.94 131.6 1333.68 131.6 1330.91C131.6 1328.14 131.6 1285.62 131.85 1274.04C131.85 1273.29 130.84 1272.03 129.84 1271.78C127.83 1271.02 123.8 1270.77 121.03 1270.77C112.22 1270.77 100.65 1274.54 93.5999 1279.83C86.0499 1285.62 80.0099 1296.19 80.0099 1308.26C80.0099 1319.08 82.7799 1326.63 89.0699 1330.91C90.3299 1331.92 92.0899 1333.17 92.0899 1334.18C92.0899 1335.69 90.0799 1336.45 89.0699 1336.45C87.0599 1336.45 84.2899 1335.19 82.7799 1334.44C70.1999 1325.88 63.3999 1312.8 63.3999 1296.95C63.3999 1269.52 84.2899 1251.66 113.48 1251.66C133.61 1251.66 153.74 1262.23 163.05 1282.11C166.07 1288.65 167.33 1296.96 167.33 1301.74C167.34 1310.78 164.06 1320.59 157.77 1327.13ZM141.67 1274.29C140.41 1273.79 138.9 1274.79 138.9 1275.55C138.65 1282.09 138.65 1294.17 138.9 1306.75C138.9 1312.29 140.41 1315.31 145.69 1315.31C152.74 1315.31 161.04 1308.01 161.04 1299.21C161.04 1288.13 153.24 1278.57 141.67 1274.29Z" fill="white"/>
<path d="M719.101 37.09L720.751 35.41L722.471 37.09C722.471 38.77 720.751 40.47 720.751 42.16L724.121 40.48C727.481 35.41 729.221 42.16 730.901 43.86H724.121C729.221 48.91 737.641 52.27 742.701 59.02C749.441 60.72 759.541 59.02 764.631 70.83C769.651 70.83 776.401 69.15 779.801 74.19C784.861 80.96 796.681 75.87 798.331 86.02C805.071 79.28 808.431 77.57 816.901 79.28C815.221 80.96 813.531 79.28 811.831 79.28C806.781 92.76 821.941 79.28 821.941 89.38L823.621 87.7C830.361 102.88 845.561 87.7 852.301 101.17C853.941 104.56 855.671 99.52 857.351 97.82L864.101 102.88C864.101 101.17 867.471 97.82 869.151 101.17V94.44H872.531C870.841 87.7 872.531 86.02 872.531 79.28C867.471 70.83 867.471 64.09 855.681 60.72C857.361 59.02 860.701 57.34 860.701 57.34C860.701 60.72 862.431 60.72 864.111 60.72C867.481 50.59 853.961 52.27 860.701 43.86C853.961 37.1 860.701 26.99 852.321 20.25C843.861 20.25 842.221 11.8 838.841 5.06001C837.121 6.75001 830.381 5.06001 830.381 0.0100098C828.701 0.0100098 825.331 0.0100098 821.961 0.0100098C808.441 15.19 791.601 15.19 773.081 18.55C761.271 25.31 739.341 13.51 729.221 26.99C724.121 28.67 729.221 35.42 724.121 35.42C722.471 35.42 722.471 33.73 722.471 33.73H717.391C717.391 35.41 717.391 37.09 719.101 37.09Z" fill="white"/>
<path d="M1258.43 562.05C1255.07 556.99 1243.94 554.62 1243.94 554.62C1238.49 554.62 1234.98 547 1224.87 547C1221.5 550.39 1214.86 545.41 1211.53 542.05C1206.43 540.37 1204.12 537.09 1197.98 537.09C1192.41 531.52 1181.14 533.29 1172.71 529.92C1169.34 526.54 1164.28 534.98 1164.28 528.24H1162.61C1159.23 528.24 1156.35 529.43 1156.35 527.73C1152.98 524.36 1146.99 524.85 1143.62 524.85C1129.78 524.85 1126.52 518.68 1118.74 518.68C1113.36 518.68 1109.51 516.2 1100.98 515.85C1090.32 515.85 1084.86 510.63 1076.98 506.66C1071.27 505.94 1064.83 502.54 1058.01 502.54C1042.89 494.09 1048.89 493.86 1033.69 487.13C1028.68 483.74 1000.73 477.25 1000.73 470.48C997.33 470.48 993.96 463.74 990.6 468.8C988.91 468.8 988.91 465.42 988.91 465.42C985.54 463.74 982.17 465.42 978.81 468.8C972.07 463.74 985.54 463.74 978.81 458.69C970.34 458.69 963.61 453.64 956.87 450.25C956.87 450.25 955.19 450.25 955.19 451.93C951.82 443.51 950.13 453.64 945.08 450.25C945.08 448.56 946.76 448.56 946.76 448.56C940.02 443.51 933.06 438.68 924.58 433.6C912.83 431.92 909.59 419.05 897.8 420.73V420.75C897.76 420.74 897.72 420.73 897.68 420.72C897.01 420.56 896.34 420.43 895.67 420.28C895.82 419.89 895.97 419.49 896.11 419.05C894.43 412.27 884.39 411.46 884.39 411.46C877.26 404.33 875.39 399.11 873.97 397.9C874.23 397.27 874.37 396.59 874.32 395.87C874.24 394.57 874.14 393.27 874.05 391.98C874.85 392.23 875.52 392.53 875.91 392.91C875.91 391.23 877.59 386.16 874.23 386.16C874.23 384.48 875.91 384.48 875.91 384.48C879.28 376.06 882.67 369.32 884.39 360.87C884.39 359.26 883.61 358.05 882.44 357.21C882.53 356.8 882.66 356.39 882.38 355.97C882.97 353.86 883.27 352.77 883.86 350.66C884.83 350.23 885.98 350.19 887.76 350.78C887.76 345.71 887.76 340.66 891.14 337.28C889.42 332.23 892.78 328.85 891.14 322.11C896.15 317.05 899.55 308.6 897.87 298.49C897.56 298.49 897.14 298.49 896.67 298.49C896.79 298.29 896.92 298.09 897.04 297.88C905.62 298.68 903.76 287.75 909.66 283.32C904.61 271.51 921.45 264.77 914.72 258.03C916.44 258.03 916.44 256.35 918.09 256.35V244.54C918.09 244.54 916.45 244.54 914.72 246.22C914.72 245.64 914.67 245.13 914.59 244.67C914.72 243.47 914.81 242.26 914.86 241.06C921.42 236.02 919.82 229.33 921.45 222.62C919.81 222.62 918.09 222.62 916.44 222.62C919.8 220.94 923.18 222.62 923.18 217.57C919.8 210.79 919.8 205.74 913.04 202.38C913.04 199 916.44 197.32 921.45 199C928.19 193.95 921.45 183.84 923.18 177.08C909.66 165.28 933.28 161.89 936.67 153.47L940.04 156.84C948.46 146.74 963.62 151.78 972.08 145.05C978.82 150.1 983.87 139.97 990.62 139.97C990.62 128.18 997.35 146.74 1000.75 136.6C1012.51 131.55 1024.34 139.97 1032.75 129.87C1036.12 123.13 1031.07 121.42 1029.39 116.36C1032.75 109.62 1020.97 107.94 1022.62 101.17C1019.28 97.81 1017.4 99.68 1016.51 102.31C1016.31 101.96 1016.11 101.62 1015.88 101.28C1015.43 101.71 1014.83 101.97 1014.22 101.88C1013.62 101.79 1013.12 101.41 1012.59 101.12C1010.94 100.24 1008.95 100.29 1007.1 100.59C1005.25 100.89 1003.42 101.4 1001.55 101.35C1001.08 101.34 1000.54 101.24 1000.32 100.83C1000.06 100.35 1000.4 99.77 1000.8 99.41C1002.15 98.18 1004.12 98.01 1005.94 97.89C1006.98 97.83 1008.07 97.77 1009 98.23C1009.49 98.47 1009.91 98.84 1010.37 99.13C1011.32 99.73 1012.48 99.99 1013.59 99.85C1013.76 99.83 1013.95 99.79 1014.07 99.67C1014.25 99.49 1014.23 99.22 1014.22 98.95C1014.01 98.66 1013.8 98.37 1013.6 98.08C1014.23 96.87 1014.25 95.66 1014.25 94.46C1010.96 89.54 1006.04 87.82 1001.16 87.73C1001.01 87.66 1000.88 87.58 1000.75 87.5C1000.68 84.14 998.97 79.37 995.67 82.67L995.89 82.78C993.05 81.98 990.59 79.45 987.75 79.51C988.39 79.3 988.93 79.29 988.93 79.29C987.97 77.34 988.6 74.99 990.41 73.78L992.31 72.52C975.46 65.78 963.63 80.97 951.84 87.71C951.84 86.03 950.15 86.03 950.15 86.03H946.78H941.72C941.72 91.08 938.32 86.03 936.66 87.71C933.28 89.39 929.91 91.08 929.91 94.45L928.18 92.77C923.17 89.4 916.43 94.45 911.34 97.84L913.54 100.02C912.66 100.48 911.8 100.95 910.95 101.46L909.66 99.53C899.55 107.95 892.78 118.06 881.01 121.43L882.67 128.19C881.78 129.08 881.71 129.96 882 130.82C881.71 131.13 881.43 131.45 881.14 131.76C881.4 131.05 881.51 130.39 881.01 129.89C877.6 124.83 874.23 131.57 870.86 128.2C865.81 124.83 867.5 131.57 864.13 133.26C850.61 134.94 837.13 136.62 825.35 141.68C821.98 143.36 821.98 146.76 816.93 146.76C816.72 147.17 816.56 147.56 816.44 147.94L813.55 148.45C808.45 153.5 801.72 153.5 803.44 160.24C801.72 158.56 801.72 158.56 801.72 156.87H798.35C791.61 163.62 786.55 156.87 783.19 163.62C769.67 163.62 761.29 177.11 746.09 172.05C734.28 175.43 722.49 177.11 710.66 180.48V177.1C705.61 178.79 700.55 173.73 695.51 175.42C680.32 177.1 666.81 185.52 653.33 188.92C648.28 178.8 638.17 183.86 628.06 182.18C624.66 188.92 621.29 177.1 617.93 185.53C617.93 180.48 612.86 183.87 611.18 182.18C611.64 183.09 612.23 184.01 612.84 184.97C612.41 185.14 612 185.38 611.65 185.75C610.31 187.14 611.09 189.41 609.75 190.73C609.18 191.29 608.33 191.47 607.61 191.83C606.72 191.01 606.13 190.07 606.13 188.93L604.44 193.99C606.13 205.78 617.93 192.31 621.29 204.09C624.66 209.16 634.81 207.47 639.83 210.82C639.62 210.38 639.51 209.89 639.48 209.36C639.89 209.5 640.31 209.62 640.74 209.69C642.18 209.93 643.65 209.71 645.11 209.58C650.94 210.75 655.51 210.16 660.07 204.09C665.13 205.77 663.47 197.35 668.49 199.03C670.21 200.71 668.49 202.41 668.49 204.09C676.94 214.21 678.59 202.41 687.07 202.41C690.43 207.47 695.5 200.72 698.86 204.09L697.18 205.77C693.81 207.47 698.86 209.15 698.86 210.82C705.61 205.77 720.76 214.21 727.5 205.77C734.28 212.53 739.35 200.71 746.09 202.41C751.15 202.41 757.92 197.35 754.55 193.99C761.29 195.67 768.04 192.31 773.09 190.62C784.88 193.99 791.61 187.24 801.72 185.54L800.07 182.19L813.55 180.49L814.87 181.16L814.47 181.74L815.71 181.58L816.92 182.19C819.78 181.88 822.28 181.24 824.49 180.47L825.46 180.35L828.21 181.74C834.37 185.85 835.16 180.74 838.62 180.2C838.97 180.17 839.19 180.16 839.19 180.16C840.26 180.15 841.59 180.57 843.35 181.75L841.94 184.48C846.1 187.25 847.45 192.75 846.1 196.86C848.85 202.37 851.6 203.74 855.69 205.1C851.6 210.63 863.93 209.25 857.09 214.75C862.59 221.63 859.84 231.26 865.34 238.13C863.93 242.26 863.93 249.13 863.93 254.64L864.47 253.53C863.38 258.61 863.38 265.62 863.38 271.41C863.38 276.47 856.64 281.53 861.74 284.9C861.74 286.58 860.05 288.26 858.37 288.26C860.05 303.45 853.41 311.64 849.03 328.3C840.92 336.41 842.4 343.26 831.49 354.17C825.5 363.14 812.64 359.43 805.42 356.81C799.24 355.47 794.25 353.56 789.68 351.37C787.77 349.34 783.4 347.79 779.91 346.15C778.86 345.56 777.8 344.96 776.72 344.37C775.49 343.49 774.76 342.53 774.95 341.43C771.79 336.93 767.54 334.8 758.57 333.18C758.09 332.89 757.59 332.6 757.09 332.31L757.16 331.88C759.17 332.21 759.34 331.19 759.34 331.19C756.25 327.91 751.09 327.52 747.15 327.03C746.23 326.57 745.34 326.14 744.47 325.72C742.29 323.84 739.12 322.61 735.74 321.64C732 319.73 728.97 317.78 726.48 317.61C719.26 311.68 709.98 311.42 705.17 307.7C705.05 309.39 703.14 312.64 706.5 312.87C704.59 316.11 703.14 312.64 701.46 312.53C698.67 303.89 688.21 308.24 681.69 304.41C674.51 310.68 666.72 301.7 659.65 306.28C664.2 313.35 655.86 310.48 654.64 311.7C650.33 312.31 643.42 313.29 643.42 317.68C646.6 317.24 649.46 318.58 653.34 317.13C656.71 322.19 668.5 317.13 670.22 325.55C673.58 327.24 678.6 320.49 680.32 325.55C697.18 327.24 707.3 339.05 722.49 344.1C729.24 352.55 735.97 357.6 742.73 362.65C751.15 359.28 751.15 371.08 754.56 374.47C762.95 369.41 762.95 384.57 768.05 374.47C764.67 387.95 783.2 386.26 786.57 394.71C796.72 398.07 796.72 403.13 805.11 406.5C805.11 409.86 807.33 413.77 805.68 413.77C805.68 413.77 803.08 420.48 800.09 425.06C799.32 428.75 796.73 431.79 798.37 435.18C794.68 437.64 793.65 439.9 791.63 441.92C784.9 441.92 793.31 436.86 788.26 435.18C786.58 441.92 786.58 450.34 781.53 453.73C779.85 452.02 779.85 450.34 778.16 448.65C776.44 453.73 783.21 455.39 778.16 458.78C775.39 455.99 774.86 461.16 773.85 462.14H776.44V465.51C776.44 467.19 774.79 467.19 773.11 467.19C768.05 468.88 774.78 473.94 769.69 475.62C768.06 473.94 766.33 473.94 768.06 470.56C761.31 477.33 754.57 480.68 754.57 489.12H749.48C746.11 499.22 730.93 494.17 725.88 504.3L729.26 507.66C729.26 507.66 727.53 509.34 725.88 509.34L724.16 507.66H720.79C720.79 511.04 717.43 512.73 715.74 516.09C717.43 522.85 707.32 519.48 709 526.22C703.94 524.53 700.57 534.63 695.53 534.63C693.84 532.95 693.84 531.27 693.84 529.58C685.36 532.95 680.34 543.08 668.52 543.08C651.67 556.55 628.08 563.31 611.2 576.8C601.07 578.48 599.41 586.93 587.58 586.93C574.11 586.93 567.36 591.98 557.26 595.34C555.55 600.4 545.44 597.02 542.05 597.02C533.63 603.76 516.75 600.4 511.73 613.9L513.37 615.58C516.75 617.28 518.46 613.9 520.11 610.52C526.89 612.21 523.51 618.94 525.2 622.32C528.57 625.7 526.89 618.94 530.27 617.27C533.63 618.93 533.63 622.32 533.63 625.69C540.37 625.69 537 620.61 538.68 617.27C542.06 618.93 540.37 622.32 540.37 623.99C548.81 627.37 557.26 617.27 564 625.69C575.8 617.27 587.58 630.75 596.05 623.99C614.57 622.32 628.08 607.13 643.21 603.74L641.56 600.38C643.21 598.7 644.94 597 648.31 597V600.38C648.31 598.7 649.98 598.7 651.67 598.7C653.36 590.28 660.1 597.01 665.16 595.33V593.65C668.53 593.65 673.61 585.22 675.26 591.97C676.97 588.61 676.97 588.61 673.61 586.92L675.26 585.22C678.63 583.52 678.63 585.22 680.35 586.92C685.37 583.52 688.79 583.52 690.47 578.47C692.13 578.47 695.54 576.79 697.21 578.47C698.89 575.1 702.27 575.1 702.27 571.73C712.41 578.47 709.01 561.62 719.15 564.96C727.53 554.85 742.75 554.85 746.12 541.36C746.12 543.07 747.85 543.07 747.85 543.07C749.49 539.68 747.85 538.01 746.12 534.62C747.85 532.94 749.49 532.94 751.18 534.62C759.6 529.57 776.45 524.52 778.18 511.02C779.86 511.02 783.23 514.39 784.92 512.71C783.23 504.28 791.65 511.02 793.33 504.28C795.02 494.15 813.59 492.46 810.21 480.66C813.59 472.23 820.32 470.54 827.06 465.49C827.06 458.75 837.16 457.05 832.15 450.31C833.79 446.94 837.17 450.31 838.89 450.31C842.26 445.25 847.28 445.25 847.28 440.21C852.36 441.89 863.36 448.45 863.36 448.45C864.72 448.77 866.13 448.85 867.53 448.6C867.53 448.61 867.53 448.61 867.53 448.62L884.43 455.36C884.43 457.05 882.71 457.05 882.71 458.75C887.79 462.11 891.17 455.36 894.53 460.43C887.79 470.54 904.64 470.54 906.33 475.6C909.69 478.99 914.75 478.99 918.12 473.92C926.58 479 921.48 485.73 921.48 490.78C923.21 495.85 929.95 495.85 931.6 494.14C936.7 499.2 943.44 502.59 945.14 511.01C948.51 516.07 955.25 522.82 961.98 521.14C970.39 529.56 982.23 526.2 988.97 538L990.66 532.93C994.02 534.61 992.34 538 994.02 539.67C1000.79 536.31 999.08 543.06 1004.16 546.43C1010.9 549.8 1021 556.53 1024.38 563.29C1029.43 570.04 1034.49 556.53 1041.22 564.95C1039.54 568.35 1037.86 563.29 1036.16 566.67C1034.48 568.35 1036.16 568.35 1037.85 570.03C1041.21 575.09 1042.94 568.35 1046.27 568.35L1049.66 575.09C1049.66 570.03 1056.4 571.72 1058.05 566.67C1058.05 570.03 1061.41 570.03 1059.77 571.72C1047.94 570.04 1061.41 580.14 1051.31 580.14C1053.03 580.14 1056.39 581.82 1054.68 585.21C1058.05 586.91 1061.41 590.28 1064.82 586.91C1066.5 593.64 1073.24 590.28 1078.31 591.96C1078.31 591.96 1076.61 586.91 1080 586.91C1081.68 590.28 1078.31 595.32 1083.36 595.32C1095.19 600.38 1105.3 595.32 1113.72 602.08C1115.41 595.32 1125.52 602.08 1127.24 595.32C1132.27 595.32 1133.99 598.69 1139.01 598.69C1139.01 586.9 1150.85 597 1152.53 591.95C1154.21 593.63 1154.21 595.32 1155.89 597C1160.95 593.64 1162.64 600.38 1169.37 597C1176.15 588.59 1184.56 597 1192.99 591.95C1189.38 589.57 1190.03 587.18 1188.93 585.38C1190.34 585.43 1191.76 585.73 1193.16 585.91C1196.87 586.39 1200.69 585.97 1204.22 584.7C1206.94 583.72 1209.5 582.24 1212.34 581.65C1215.65 580.96 1219.07 581.55 1222.42 582C1226.87 582.61 1231.35 582.99 1235.84 583.14C1237.4 583.19 1238.68 583.02 1239.72 582.66C1241.18 584.38 1242.99 588.04 1245.26 586.9C1246.94 590.27 1255.36 586.9 1258.73 586.9L1262.11 590.27C1268.88 590.27 1268.88 583.5 1270.57 580.14C1270.57 578.46 1268.88 578.46 1267.19 576.77L1270.57 575.09C1270.57 570.03 1271.94 572.2 1268.61 565.44C1263.52 565.41 1261.8 558.68 1258.43 562.05Z" fill="white"/>
<path d="M701.22 967.49C697.66 971.12 692.23 972.91 694.01 978.35C688.59 998.25 666.9 987.37 659.65 1001.85C632.49 998.25 648.78 963.85 645.18 945.77C650.63 920.45 661.48 893.32 661.48 864.39L648.78 855.33C645.18 858.95 643.36 860.77 639.73 855.33C637.91 849.91 641.55 846.3 645.18 842.68C628.88 817.34 605.37 851.73 587.27 831.81C581.85 837.23 572.82 837.23 571 844.48C558.35 842.69 563.75 860.78 551.1 862.57C554.74 871.62 563.76 877.04 572.82 880.66C587.27 895.13 585.46 913.22 589.1 931.3C599.95 943.97 587.28 962.06 589.1 978.35C587.28 989.2 585.46 1000.06 581.85 1010.9C576.43 1032.61 549.29 1018.15 540.25 1034.4C522.17 1034.4 500.48 1034.4 485.99 1048.88C485.99 1052.5 489.63 1056.12 491.41 1057.92C496.83 1085.06 527.58 1077.83 543.86 1095.93C552.92 1101.35 563.75 1090.49 576.42 1095.93C580.02 1103.16 592.75 1108.58 589.09 1119.43C590.88 1126.66 585.45 1133.9 589.09 1141.14C590.88 1166.46 592.75 1189.96 581.84 1213.49C587.26 1236.99 574.59 1255.08 581.84 1278.59C576.42 1296.69 567.4 1314.77 565.53 1336.48C565.53 1347.33 576.41 1352.74 581.84 1359.99C590.87 1367.24 589.09 1379.88 601.73 1379.88C609.01 1390.72 616.22 1374.45 625.29 1381.7C632.49 1372.63 643.35 1370.83 652.41 1367.23C652.41 1352.74 661.47 1341.89 659.65 1327.42C674.09 1303.92 659.65 1269.57 679.53 1249.65C683.17 1244.22 679.53 1235.19 677.74 1229.74C663.26 1237 650.63 1255.08 639.73 1265.93C636.13 1267.74 632.49 1273.17 628.89 1271.35C614.45 1258.69 603.6 1236.99 612.58 1215.29C616.23 1200.83 607.16 1186.34 612.58 1170.07C607.16 1159.22 609.02 1150.18 614.44 1141.13C605.37 1132.08 619.86 1128.45 621.65 1124.84C623.46 1108.56 619.87 1097.72 625.3 1083.23C627.07 1065.15 647 1057.9 661.48 1050.67C679.53 1025.33 710.29 1038 730.19 1019.91C733.81 1007.27 751.89 1001.83 746.47 987.34C737.39 971.12 717.52 967.49 701.22 967.49Z" fill="white"/>
<path d="M1028.63 1273.18C1015.97 1293.08 992.46 1293.08 972.53 1302.13C965.33 1307.55 950.84 1314.79 940 1307.55L896.61 1323.83C891.15 1320.21 885.73 1325.63 882.13 1327.44C867.64 1325.64 855.02 1332.88 842.32 1331.07C822.42 1345.54 802.52 1327.44 784.42 1332.88V1343.73C797.13 1372.65 831.45 1354.56 855.02 1361.82C864.04 1356.37 873.07 1352.75 883.92 1352.75C903.84 1347.35 925.52 1345.53 945.43 1336.49C958.09 1343.73 967.11 1327.43 977.97 1327.43C994.25 1318.39 1012.38 1314.78 1028.64 1303.93C1039.51 1294.88 1061.19 1298.51 1061.19 1282.23C1055.77 1273.18 1039.5 1271.36 1028.63 1273.18Z" fill="white"/>
<path d="M1296.5 1451.15C1294.33 1450.32 1295.1 1446.09 1292.9 1447.51C1292.59 1443.99 1289.69 1442.88 1291.21 1438.92C1285.38 1438.96 1285.48 1432.19 1281.14 1430.53C1278.93 1431.96 1278.61 1428.43 1277.93 1425.91C1276.12 1424.08 1274.34 1422.27 1271.73 1424.66C1272.19 1419.18 1266.01 1417.93 1263.14 1414.57C1262.45 1412.04 1258.38 1416.14 1259.89 1412.19L1259.17 1411.91C1257.72 1411.35 1258.1 1410.36 1258.48 1409.36C1257.79 1406.83 1255.59 1408.25 1254.14 1407.69C1252.79 1400.38 1246.95 1400.39 1242.6 1398.73C1242.57 1398.75 1242.55 1398.77 1242.53 1398.79C1240.31 1395.5 1238.27 1392.21 1236.63 1388.92C1227.61 1385.32 1220.34 1378.09 1213.11 1374.45C1193.2 1347.34 1164.28 1327.42 1157.04 1294.87C1153.43 1287.64 1142.6 1285.83 1142.6 1274.97C1129.89 1267.74 1124.47 1249.65 1117.26 1236.99C1104.6 1220.71 1093.72 1202.63 1086.51 1184.53C1086.51 1170.07 1086.51 1153.77 1102.78 1146.55C1119.05 1144.75 1110.03 1124.84 1122.68 1117.59C1133.54 1112.19 1146.16 1099.53 1146.16 1085.05C1160.64 1074.2 1164.28 1050.68 1184.18 1045.27C1187.78 1038.01 1196.84 1028.96 1189.63 1021.75C1184.18 1019.93 1180.57 1016.31 1176.93 1018.13C1166.07 1007.28 1151.58 1012.71 1144.37 996.44C1129.89 1000.05 1110.02 991 1102.77 1010.88C1110.02 1018.13 1100.99 1027.17 1102.77 1036.22C1084.72 1059.73 1088.29 1095.92 1062.99 1113.99C1059.38 1108.57 1052.15 1108.57 1053.97 1101.34C1032.24 1079.62 1041.31 1041.63 1021.38 1019.93C1021.38 1009.09 1019.57 996.44 1019.57 987.36C1014.15 971.1 1003.29 953.02 1008.72 934.94C1014.14 929.49 1015.96 922.26 1023.2 922.26C1032.24 905.98 1052.14 916.84 1061.17 900.55C1066.59 896.95 1072.03 905.98 1073.85 896.95C1070.24 893.31 1070.24 887.88 1064.82 884.26C1052.15 878.86 1041.32 886.05 1028.62 889.7C1014.15 880.65 1006.94 902.38 996.08 896.95C983.38 891.51 983.38 877.03 981.6 867.98C983.38 848.1 970.75 831.8 970.75 810.12C963.51 799.28 952.66 792.02 940 786.6C923.72 786.6 909.24 795.65 894.76 786.6C885.73 781.18 874.89 773.94 865.87 779.36C865.87 790.21 876.7 793.82 882.13 799.27C900.18 826.39 923.73 848.09 932.75 878.85C932.75 896.94 947.2 907.78 943.64 925.86C938.17 934.93 930.93 936.71 923.73 943.95C900.19 951.18 880.32 967.46 858.59 974.69C844.14 987.35 827.85 981.94 811.54 978.33C798.91 985.56 795.27 998.23 789.85 1009.07C782.63 1023.54 795.27 1034.38 795.27 1048.86C804.33 1050.67 809.76 1041.62 817 1047.06C826.03 1041.63 840.53 1045.27 845.95 1032.59C862.22 1028.96 862.22 1003.66 882.12 1005.46C896.6 996.44 903.82 978.34 921.9 983.74C934.56 972.9 947.19 969.28 963.51 971.1C972.52 974.7 965.32 987.36 968.92 992.79C979.78 1007.28 981.6 1025.35 992.44 1036.22C999.69 1048.87 1003.28 1063.33 1005.11 1077.83C1010.49 1088.67 1026.8 1097.72 1024.98 1110.37C1021.38 1132.08 1041.32 1142.94 1037.67 1164.64C1026.81 1175.48 1021.38 1186.33 1010.5 1193.58C1003.29 1200.83 1001.52 1211.67 992.45 1215.29C983.39 1226.13 959.9 1226.13 965.33 1244.22C977.96 1249.65 994.24 1236.99 1005.12 1231.56C1024.99 1227.93 1035.85 1206.23 1055.77 1202.63C1063.01 1202.63 1068.44 1208.04 1068.44 1213.48C1079.31 1233.37 1073.86 1264.12 1095.59 1278.58C1108.21 1296.68 1110.03 1314.76 1124.48 1331.04C1122.69 1350.93 1140.79 1361.8 1148.02 1376.27C1162.47 1394.36 1178.76 1414.25 1189.63 1432.35C1196.42 1433.09 1201.95 1437.94 1207.4 1442.8C1207.48 1442.91 1207.59 1443.02 1207.74 1443.11C1208.02 1443.36 1208.31 1443.62 1208.59 1443.87C1209.16 1444.48 1209.75 1444.99 1210.35 1445.42C1213.26 1447.94 1216.2 1450.26 1219.36 1451.76C1219.43 1451.92 1219.51 1452.06 1219.58 1452.23C1219.65 1452.12 1219.71 1452.05 1219.78 1451.95C1222.81 1453.31 1226.04 1453.91 1229.63 1453.22C1230.03 1453.7 1230.49 1454.14 1231.21 1454.41C1231.53 1453.57 1231.86 1452.95 1232.18 1452.51C1232.46 1452.41 1232.75 1452.33 1233.03 1452.21C1233.67 1452.07 1234.32 1451.95 1234.96 1451.85C1236.31 1452.59 1237.55 1454.1 1238.53 1452.69C1238.88 1453.95 1238.5 1454.94 1238.84 1456.2C1241.77 1455.06 1240.98 1459.29 1244.63 1458.42C1249.43 1454.61 1251.16 1460.93 1255.92 1459.36C1254.91 1457.37 1255.72 1456.08 1255.65 1454.84C1256.25 1455.1 1256.78 1455.51 1257.35 1455.85C1258.84 1456.74 1260.58 1457.13 1262.37 1456.96C1263.76 1456.83 1265.19 1456.39 1266.54 1456.51C1268.12 1456.65 1269.45 1457.56 1270.79 1458.38C1272.57 1459.47 1274.41 1460.43 1276.3 1461.26C1276.96 1461.55 1277.55 1461.66 1278.08 1461.62C1278.32 1462.87 1278.28 1465.31 1279.51 1465.02C1279.48 1467.27 1283.85 1466.69 1285.3 1467.24L1285.99 1469.77C1288.9 1470.89 1290.42 1466.92 1291.9 1465.23C1292.28 1464.24 1291.55 1463.96 1291.21 1462.7L1293.04 1462.27C1294.19 1459.34 1296.41 1455.66 1296.5 1451.15Z" fill="white"/>
<path d="M785.51 1205.13C789.54 1215.86 800.49 1219.08 811.47 1222.32C823.58 1218.23 825.5 1207.03 828.72 1196.74C830.93 1196.1 833.81 1197.47 835.58 1195.05C839.28 1195.05 840.53 1189.61 844.75 1190.95C848.33 1189.7 851.98 1187.54 855.32 1186.9C858.6 1185.18 861.78 1183.17 865.17 1183.51C867.83 1183 872.69 1181.51 874.9 1180.85C876.34 1179.94 877.85 1179.49 879.42 1179.84C882.18 1176.77 885.96 1180.06 888.71 1176.99C890.06 1176.48 890.67 1176.81 891.66 1176.09C891.86 1175.01 891.3 1174.7 890.3 1173.66C887.82 1171.89 885.12 1172.92 882.19 1173.09C878.47 1173.81 876.05 1174.42 873.83 1174.48C872.4 1175.23 864.45 1176.71 862.18 1177.74C860.97 1178.57 858.71 1178.51 856.79 1179.72C851.33 1180.14 846.23 1182.69 841.16 1183.2C839.09 1184.32 837.18 1184.23 835.31 1183.66C835.36 1183.6 835.41 1183.54 835.46 1183.48C833.46 1178.12 833.21 1170.9 834.9 1167.2C833.78 1161.67 833.59 1155.62 833.14 1149.84C833.88 1150.04 834.47 1150.24 835.59 1150.1C839.84 1151.83 841.52 1146.36 845.77 1148.09C847.03 1146.88 848.67 1146.54 850.51 1146.72C852.92 1146.23 858.08 1144.05 860.83 1143.16C864.25 1142.05 867.09 1141.2 870.9 1141.42C874.48 1141.63 876.42 1139.6 879.81 1138.61C882.07 1137.95 884.43 1137.4 886.87 1137.95C887.37 1138.06 887.88 1138.22 888.37 1138.18C888.96 1138.12 890.29 1137.77 890.78 1137.43C891.56 1136.88 892.53 1136.32 893.47 1136.22C894.25 1136.14 894.47 1136.44 894.87 1137.16C896.63 1154.15 890.71 1171.62 896.93 1189.8C900.74 1195.13 911.58 1194.78 917 1194.61C929.18 1179.71 942.85 1210.05 949.34 1188.11C957.81 1169.74 953.51 1148.17 956.46 1128.14L957.52 1104.61C937.32 1096.22 938.2 1123.33 923.76 1123.79C912.8 1120.52 903.64 1117.18 891.15 1123.03C891.16 1123.06 891.17 1123.09 891.19 1123.12C891.03 1123.14 890.86 1123.15 890.7 1123.18C887.33 1125.55 886.88 1128.01 882.88 1129.96C877.91 1132.15 871.78 1132.22 866.49 1134.71C864.05 1134.47 861.98 1135.75 860.41 1135.53C857.74 1135.68 849.56 1138.39 847.82 1138.38C845.73 1139.51 843.16 1140.17 839.31 1141.42C836.85 1142.64 834.2 1143.08 832.69 1145.3C832.23 1141.51 831.51 1137.94 830.13 1134.83C824.72 1135.02 821.18 1136.96 817.64 1138.88C806.74 1137.45 800.78 1123.16 788.12 1123.6C781.1 1129.29 786.78 1136.33 783.32 1141.88C789.06 1150.71 784.07 1163.56 782.6 1172.67C784.76 1183.46 776.17 1196.43 785.51 1205.13Z" fill="white"/>
<path d="M1105.65 854.79C1098.99 843.78 1107.74 827.19 1091.74 825.6C1075.66 805.26 1059.72 822.42 1040.38 815.32C1037.63 816.99 1038.21 824.17 1032.13 820.32C1027.71 819.23 1020.54 819.83 1016.7 825.9C1046.54 837.93 1070.38 864.87 1102.38 868.05L1105.65 854.79Z" fill="white"/>
</g>
<defs>
<clipPath id="clip0_2050_572">
<rect width="1296.5" height="1470" fill="white"/>
</clipPath>
</defs>
</svg>
