<svg xmlns="http://www.w3.org/2000/svg" viewBox="0 0 48 48" fill="none">
  <circle cx="24" cy="24" r="24" fill="currentColor" fill-opacity="0.9"/>
  <path fill-rule="evenodd" clip-rule="evenodd" d="M38.8571 23.5312C38.8571 31.4775 32.2053 37.9192 24 37.9192C22.4861 37.9192 21.0252 37.7 19.6491 37.2924L16.4181 38.7226C15.3846 39.18 14.2255 38.4168 14.2255 37.2788V34.3672C11.1105 31.7298 9.14282 27.853 9.14282 23.5312C9.14282 15.5848 15.7946 9.14307 24 9.14307C32.2053 9.14307 38.8571 15.5848 38.8571 23.5312ZM16.1339 26.3647L20.4423 20.4726C20.8971 19.8505 21.7981 19.7155 22.4281 20.1752L25.6893 22.5542C26.0699 22.8318 26.5976 22.8266 26.9721 22.5415L30.8615 19.5806C31.4949 19.0984 32.332 19.8635 31.8634 20.4963L27.345 26.5976C26.8882 27.2145 25.9914 27.3462 25.364 26.8884L22.0922 24.5017C21.7134 24.2253 21.1885 24.2291 20.814 24.5109L17.1352 27.2794C16.5028 27.7554 15.672 26.9965 16.1339 26.3647Z" fill="white"/>
</svg>