<svg xmlns="http://www.w3.org/2000/svg" viewBox="0 0 35 36" fill="none">
  <path d="M9.25404 16.1713C8.83749 15.4549 8.18385 14.8911 7.39571 14.5682C6.60757 14.2453 5.72956 14.1817 4.89949 14.3873C4.06943 14.593 3.33431 15.0562 2.80953 15.7043C2.28474 16.3525 2 17.1488 2 17.9683C2 18.7879 2.28474 19.5842 2.80953 20.2323C3.33431 20.8805 4.06943 21.3437 4.89949 21.5493C5.72956 21.755 6.60757 21.6914 7.39571 21.3685C8.18385 21.0456 8.83749 20.4817 9.25404 19.7654M9.25404 16.1713C9.5637 16.704 9.74089 17.3156 9.74089 17.9683C9.74089 18.6211 9.5637 19.2343 9.25404 19.7654M9.25404 16.1713L25.7106 7.43425M9.25404 19.7654L25.7106 28.5024M25.7106 7.43425C25.9519 7.86853 26.2813 8.25249 26.6797 8.56367C27.0781 8.87484 27.5373 9.107 28.0307 9.24656C28.524 9.38612 29.0415 9.43029 29.5529 9.37648C30.0643 9.32267 30.5593 9.17196 31.0091 8.93316C31.4588 8.69437 31.8542 8.37228 32.1722 7.98572C32.4902 7.59917 32.7243 7.15591 32.861 6.68186C32.9976 6.20781 33.034 5.71248 32.968 5.22483C32.902 4.73718 32.735 4.267 32.4766 3.84177C31.9675 3.00382 31.1348 2.39021 30.1573 2.13286C29.1799 1.87552 28.1358 1.99497 27.2495 2.46554C26.3632 2.93612 25.7055 3.72025 25.4177 4.64937C25.13 5.5785 25.2351 6.57844 25.7106 7.43425ZM25.7106 28.5024C25.4637 28.9272 25.3067 29.3944 25.2487 29.8772C25.1907 30.3599 25.2327 30.8489 25.3724 31.3162C25.5121 31.7834 25.7467 32.2198 26.0629 32.6004C26.379 32.981 26.7705 33.2984 27.215 33.5344C27.6595 33.7704 28.1483 33.9204 28.6534 33.9758C29.1586 34.0313 29.6702 33.9911 30.1591 33.8576C30.648 33.7241 31.1046 33.4998 31.5029 33.1977C31.9011 32.8955 32.2331 32.5214 32.4801 32.0965C32.9788 31.2386 33.1004 30.2265 32.8183 29.2828C32.5362 28.3391 31.8733 27.5412 30.9757 27.0646C30.078 26.588 29.0189 26.4717 28.0316 26.7414C27.0442 27.011 26.2093 27.6445 25.7106 28.5024Z" stroke="currentColor" stroke-width="2.5" stroke-linecap="round" stroke-linejoin="round"/>
</svg>